<?xml version="1.0" encoding="utf-8"?>
<!-- Generator: Adobe Illustrator 27.1.0, SVG Export Plug-In . SVG Version: 6.00 Build 0)  -->
<svg version="1.1" id="Capa_1" xmlns="http://www.w3.org/2000/svg" xmlns:xlink="http://www.w3.org/1999/xlink" x="0px" y="0px"
	 viewBox="0 0 1647.94 706.95" style="enable-background:new 0 0 1647.94 706.95;" xml:space="preserve">
<style type="text/css">
	.st0{fill:#FECD52;}
	.st1{fill:#E5B240;}
	.st2{fill:#CE9C36;}
	.st3{fill:#E5A739;}
	.st4{fill:#D6AB42;}
</style>
<g>
	<g>
		<path class="st0" d="M462.65,293.34c-8.1-7.56-17.65-13.4-28.65-17.53c-11-4.12-23.07-6.19-36.21-6.19
			c-12.99,0-25.02,2.06-36.1,6.19c-11.08,4.12-20.67,9.97-28.76,17.53c-8.1,7.56-14.4,16.42-18.91,26.58
			c-4.51,10.16-6.76,21.35-6.76,33.56c0,12.07,2.25,23.22,6.76,33.45c4.5,10.23,10.81,19.13,18.91,26.69
			c8.1,7.56,17.68,13.4,28.76,17.52c11.08,4.13,23.19,6.19,36.33,6.19c12.99,0,24.98-2.06,35.98-6.19
			c11-4.12,20.55-9.96,28.65-17.52c8.1-7.56,14.4-16.46,18.91-26.69c4.51-10.23,6.76-21.38,6.76-33.45c0-12.21-2.26-23.4-6.76-33.56
			C477.05,309.76,470.75,300.9,462.65,293.34z M431.02,370.32c-1.83,4.96-4.39,9.16-7.68,12.6c-3.29,3.43-7.11,6.07-11.46,7.9
			c-4.36,1.83-9.05,2.75-14.1,2.75c-5.04,0-9.74-0.91-14.1-2.75c-4.36-1.83-8.18-4.47-11.46-7.9c-3.29-3.44-5.84-7.64-7.68-12.6
			c-1.83-4.96-2.75-10.58-2.75-16.84c0-6.26,0.92-11.87,2.75-16.84c1.83-4.96,4.39-9.16,7.68-12.6c3.28-3.44,7.11-6.07,11.46-7.9
			c4.36-1.83,9.05-2.75,14.1-2.75c5.04,0,9.74,0.92,14.1,2.75c4.35,1.83,8.17,4.47,11.46,7.9c3.28,3.44,5.84,7.64,7.68,12.6
			c1.83,4.96,2.75,10.58,2.75,16.84C433.77,359.74,432.85,365.35,431.02,370.32z"/>
		<polygon class="st0" points="491.3,315.22 538.28,315.22 538.28,433.66 592.37,433.66 592.37,315.22 639.36,315.22 639.36,273.29 
			491.3,273.29 		"/>
		<polygon class="st0" points="711.1,371.8 778.95,371.8 778.95,332.86 711.1,332.86 711.1,314.07 788.34,314.07 788.34,273.29 
			657.93,273.29 657.93,433.66 791.32,433.66 791.32,392.88 711.1,392.88 		"/>
		<path class="st0" d="M951.3,365.73c5.96-8.94,8.94-19.59,8.94-31.96c0-12.37-2.98-23.1-8.94-32.19
			c-5.96-9.08-14.4-16.07-25.33-20.96c-10.93-4.89-23.88-7.33-38.85-7.33h-77.24v160.37h54.09v-40.32h14.73l27.21,40.32h57.76
			L930,384.33C938.99,379.74,946.09,373.53,951.3,365.73z M900.3,320.03c3.59,3.36,5.39,7.94,5.39,13.75c0,5.8-1.8,10.39-5.39,13.75
			c-3.59,3.36-9.13,5.04-16.62,5.04h-19.71v-37.57h19.71C891.17,314.99,896.71,316.67,900.3,320.03z"/>
		<path class="st0" d="M1148.52,319.91c-4.51-10.16-10.81-19.01-18.91-26.58c-8.1-7.56-17.65-13.4-28.65-17.53
			c-11-4.12-23.07-6.19-36.21-6.19c-12.99,0-25.02,2.06-36.1,6.19c-11.08,4.12-20.67,9.97-28.77,17.53
			c-8.1,7.56-14.4,16.42-18.91,26.58c-4.51,10.16-6.76,21.35-6.76,33.56c0,12.07,2.25,23.22,6.76,33.45
			c4.51,10.23,10.81,19.13,18.91,26.69c8.1,7.56,17.69,13.4,28.77,17.52c11.08,4.13,23.19,6.19,36.33,6.19
			c12.98,0,24.98-2.06,35.98-6.19c11-4.12,20.55-9.96,28.65-17.52c8.1-7.56,14.4-16.46,18.91-26.69c4.5-10.23,6.76-21.38,6.76-33.45
			C1155.28,341.26,1153.03,330.07,1148.52,319.91z M1097.98,370.32c-1.83,4.96-4.39,9.16-7.68,12.6c-3.29,3.43-7.11,6.07-11.46,7.9
			c-4.35,1.83-9.05,2.75-14.1,2.75s-9.74-0.91-14.1-2.75c-4.35-1.83-8.17-4.47-11.46-7.9c-3.29-3.44-5.84-7.64-7.68-12.6
			c-1.83-4.96-2.75-10.58-2.75-16.84c0-6.26,0.92-11.87,2.75-16.84c1.83-4.96,4.39-9.16,7.68-12.6c3.28-3.44,7.11-6.07,11.46-7.9
			c4.36-1.83,9.05-2.75,14.1-2.75s9.74,0.92,14.1,2.75c4.36,1.83,8.17,4.47,11.46,7.9c3.28,3.44,5.84,7.64,7.68,12.6
			c1.83,4.96,2.75,10.58,2.75,16.84C1100.73,359.74,1099.82,365.35,1097.98,370.32z"/>
		<path class="st0" d="M297.76,389.12c0,18.34-12.94,44.53-40.74,44.53c-8.02,0-116.86,0-116.86,0V273.29h104.68
			c34.65,0,42.78,18.58,42.78,44.44c0,15.91-14.88,30.11-14.88,30.11S297.77,362.79,297.76,389.12z M249.8,382.78
			c0-6.95-4.5-15.92-11.52-19.11c0,0-48.4,17.14-48.62,17.35v22.9c3.39,0,19.72,0,27.06,0C230.37,403.92,249.81,404.3,249.8,382.78z
			 M189.67,342.61c0,0,28.99-7.7,35.02-11.04c8.84-4.89,15.55-13.18,15.55-22.2c0-6.92-4.01-7.66-27.93-7.66
			c-5.14,0-19.59,0-22.63,0V342.61z"/>
	</g>
	<g>
		<path class="st1" d="M1507.78,292.7c-3.74,21.8-9.47,43.26-15.62,63.51c-20.46-69.87-48.49-136.09-85.56-197.94L1507.78,292.7z"/>
		<path class="st0" d="M1186.86,218.93l219.73-60.67c47.17,78.71,79.71,164.48,100.64,255.85l-219.19-60.74L1186.86,218.93z"/>
		<polygon class="st2" points="1507.24,414.11 1288.04,353.36 1187.28,487.52 1406.77,548.69 		"/>
		<path class="st3" d="M1186.86,218.93l101.18,134.43l-100.77,134.16C1238.58,396.69,1241.46,307.09,1186.86,218.93z"/>
		<path class="st4" d="M1474.6,302.35"/>
	</g>
</g>
</svg>
