{
  "accessors": [
    {
      "bufferView": 0,
      "componentType": 5125,
      "count": 8448,
      "type": "SCALAR"
    },
    {
      "bufferView": 1,
      "componentType": 5126,
      "count": 1638,
      "max": [
        0.03224013958802674,
        0.03219345134697954,
        0.02339999940886628
      ],
      "min": [
        -0.03224013958802674,
        -0.03219345134697954,
        -0.02339999940886628
      ],
      "type": "VEC3"
    },
    {
      "bufferView": 2,
      "componentType": 5126,
      "count": 1638,
      "max": [
        0.9999926618244713,
        0.9998941823277574,
        1.0
      ],
      "min": [
        -0.9999925842452448,
        -0.9998941788229206,
        -1.0
      ],
      "type": "VEC3"
    },
    {
      "bufferView": 3,
      "componentType": 5126,
      "count": 1638,
      "max": [
        1.0,
        0.948182935988591
      ],
      "min": [
        0.0,
        0.0
      ],
      "type": "VEC2"
    }
  ],
  "asset": {
    "generator": "Adobe Illustrator",
    "version": "2.0"
  },
  "bufferViews": [
    {
      "buffer": 0,
      "byteLength": 33792,
      "target": 34963
    },
    {
      "buffer": 0,
      "byteLength": 19656,
      "byteOffset": 33792,
      "target": 34962
    },
    {
      "buffer": 0,
      "byteLength": 19656,
      "byteOffset": 53448,
      "target": 34962
    },
    {
      "buffer": 0,
      "byteLength": 13104,
      "byteOffset": 73104,
      "target": 34962
    }
  ],
  "buffers": [
    {
      "byteLength": 86208,
      "uri": "data:application/octet-stream;base64,"
    }
  ],
  "materials": [
    {
      "doubleSided": true,
      "pbrMetallicRoughness": {
        "baseColorFactor": [
          0.9140625,
          0.7421875,
          0.2421875,
          1.0
        ],
        "metallicFactor": 0.0,
        "roughnessFactor": 0.4000000059604645
      }
    }
  ],
  "meshes": [
    {
      "primitives": [
        {
          "attributes": {
            "NORMAL": 2,
            "POSITION": 1,
            "TEXCOORD_0": 3
          },
          "indices": 0,
          "material": 0,
          "mode": 4
        }
      ]
    }
  ],
  "nodes": [
    {
      "mesh": 0
    }
  ],
  "scenes": [
    {
      "nodes": [
        0
      ]
    }
  ]
}
